<svg width="39" height="49" viewBox="0 0 39 49" fill="none" xmlns="http://www.w3.org/2000/svg">
<path d="M19.5 24.5C20.8406 24.5 21.9883 24.0202 22.943 23.0606C23.8977 22.101 24.375 20.9475 24.375 19.6C24.375 18.2525 23.8977 17.099 22.943 16.1394C21.9883 15.1798 20.8406 14.7 19.5 14.7C18.1594 14.7 17.0117 15.1798 16.057 16.1394C15.1023 17.099 14.625 18.2525 14.625 19.6C14.625 20.9475 15.1023 22.101 16.057 23.0606C17.0117 24.0202 18.1594 24.5 19.5 24.5ZM19.5 42.5075C24.4563 37.9342 28.1328 33.7794 30.5297 30.0431C32.9266 26.3069 34.125 22.9892 34.125 20.09C34.125 15.6392 32.7133 11.9948 29.8898 9.15687C27.0664 6.31896 23.6031 4.9 19.5 4.9C15.3969 4.9 11.9336 6.31896 9.11016 9.15687C6.28672 11.9948 4.875 15.6392 4.875 20.09C4.875 22.9892 6.07344 26.3069 8.47031 30.0431C10.8672 33.7794 14.5437 37.9342 19.5 42.5075ZM19.5 49C12.9594 43.4058 8.07422 38.2098 4.84453 33.4119C1.61484 28.614 0 24.1733 0 20.09C0 13.965 1.96016 9.08542 5.88047 5.45125C9.80078 1.81708 14.3406 0 19.5 0C24.6594 0 29.1992 1.81708 33.1195 5.45125C37.0398 9.08542 39 13.965 39 20.09C39 24.1733 37.3852 28.614 34.1555 33.4119C30.9258 38.2098 26.0406 43.4058 19.5 49Z" fill="#88824E"/>
</svg>
