<svg width="51" height="46" viewBox="0 0 51 46" fill="none" xmlns="http://www.w3.org/2000/svg">
<mask id="mask0_597_7885" style="mask-type:alpha" maskUnits="userSpaceOnUse" x="0" y="0" width="51" height="46">
<rect width="51" height="46" fill="white"/>
</mask>
<g mask="url(#mask0_597_7885)">
<path d="M5.22703 46.3996C4.63097 46.3996 4.13133 46.1541 3.72811 45.6632C3.32489 45.1723 3.12328 44.564 3.12328 43.8383V38.5875C2.49216 37.7338 1.98375 36.7839 1.59806 35.7381C1.21238 34.6922 1.01953 33.5503 1.01953 32.3123V7.97968C1.01953 4.43651 2.36944 1.84317 5.06925 0.199652C7.76906 -1.44387 12.0292 -2.26562 17.8495 -2.26562C23.8803 -2.26562 28.193 -1.47588 30.7876 0.103602C33.3822 1.68309 34.6795 4.30845 34.6795 7.97968V32.3123C34.6795 33.5503 34.4867 34.6922 34.101 35.7381C33.7153 36.7839 33.2069 37.7338 32.5758 38.5875V43.8383C32.5758 44.564 32.3742 45.1723 31.971 45.6632C31.5677 46.1541 31.0681 46.3996 30.472 46.3996H28.3683C27.7722 46.3996 27.2726 46.1541 26.8694 45.6632C26.4661 45.1723 26.2645 44.564 26.2645 43.8383V41.2769H9.43453V43.8383C9.43453 44.564 9.23292 45.1723 8.8297 45.6632C8.42648 46.1541 7.92684 46.3996 7.33078 46.3996H5.22703ZM5.22703 18.225H30.472V10.541H5.22703V18.225ZM10.4864 33.5929C11.363 33.5929 12.108 33.2194 12.7216 32.4724C13.3352 31.7253 13.642 30.8182 13.642 29.751C13.642 28.6837 13.3352 27.7766 12.7216 27.0295C12.108 26.2825 11.363 25.909 10.4864 25.909C9.60984 25.909 8.86477 26.2825 8.25117 27.0295C7.63758 27.7766 7.33078 28.6837 7.33078 29.751C7.33078 30.8182 7.63758 31.7253 8.25117 32.4724C8.86477 33.2194 9.60984 33.5929 10.4864 33.5929ZM25.2127 33.5929C26.0892 33.5929 26.8343 33.2194 27.4479 32.4724C28.0615 31.7253 28.3683 30.8182 28.3683 29.751C28.3683 28.6837 28.0615 27.7766 27.4479 27.0295C26.8343 26.2825 26.0892 25.909 25.2127 25.909C24.3361 25.909 23.591 26.2825 22.9774 27.0295C22.3638 27.7766 22.057 28.6837 22.057 29.751C22.057 30.8182 22.3638 31.7253 22.9774 32.4724C23.591 33.2194 24.3361 33.5929 25.2127 33.5929ZM6.17372 5.41835H29.7357C29.2098 4.69265 28.079 4.08433 26.3434 3.59341C24.6078 3.10249 21.8116 2.85703 17.9547 2.85703C14.203 2.85703 11.4594 3.12383 9.7238 3.65744C7.9882 4.19105 6.80484 4.77802 6.17372 5.41835ZM9.43453 36.1543H26.2645C27.4216 36.1543 28.4121 35.6527 29.2361 34.6495C30.06 33.6463 30.472 32.4403 30.472 31.0316V23.3476H5.22703V31.0316C5.22703 32.4403 5.63902 33.6463 6.46298 34.6495C7.28695 35.6527 8.27747 36.1543 9.43453 36.1543Z" fill="#2180AC"/>
</g>
</svg>
