<svg width="19" height="17" viewBox="0 0 19 17" fill="none" xmlns="http://www.w3.org/2000/svg">
<path d="M17.1187 16.375C15.1222 16.375 13.1497 15.9776 11.201 15.1828C9.25243 14.388 7.47951 13.2615 5.88229 11.8031C4.28507 10.3448 3.05122 8.72604 2.18073 6.94688C1.31024 5.16771 0.875 3.36667 0.875 1.54375C0.875 1.28125 0.970833 1.0625 1.1625 0.8875C1.35417 0.7125 1.59375 0.625 1.88125 0.625H5.7625C5.98611 0.625 6.18576 0.694271 6.36146 0.832813C6.53715 0.971354 6.64097 1.13542 6.67292 1.325L7.29583 4.3875C7.32778 4.62083 7.31979 4.81771 7.27187 4.97813C7.22396 5.13854 7.13611 5.27708 7.00833 5.39375L4.68438 7.5375C5.00382 8.07708 5.38316 8.59844 5.8224 9.10156C6.26163 9.60469 6.74479 10.0896 7.27187 10.5563C7.76701 11.0083 8.28611 11.4276 8.82917 11.8141C9.37222 12.2005 9.94722 12.5542 10.5542 12.875L12.8062 10.8188C12.95 10.6875 13.1377 10.5891 13.3693 10.5234C13.6009 10.4578 13.8285 10.4396 14.0521 10.4688L17.3583 11.0813C17.5819 11.1396 17.7656 11.2453 17.9094 11.3984C18.0531 11.5516 18.125 11.7229 18.125 11.9125V15.4563C18.125 15.7188 18.0292 15.9375 17.8375 16.1125C17.6458 16.2875 17.4062 16.375 17.1187 16.375ZM3.77396 5.875L5.35521 4.43125L4.94792 2.375H2.81563C2.89549 2.97292 3.00729 3.56354 3.15104 4.14688C3.29479 4.73021 3.50243 5.30625 3.77396 5.875ZM12.351 13.7063C12.974 13.9542 13.6089 14.151 14.2557 14.2969C14.9026 14.4427 15.5535 14.5375 16.2083 14.5813V12.6562L13.9563 12.2406L12.351 13.7063Z" fill="#A33A3A"/>
</svg>
