<svg width="32" height="35" viewBox="0 0 32 35" fill="none" xmlns="http://www.w3.org/2000/svg">
<mask id="mask0_1442_2144" style="mask-type:alpha" maskUnits="userSpaceOnUse" x="0" y="0" width="32" height="35">
<rect y="0.237305" width="32" height="33.9568" fill="#D9D9D9"/>
</mask>
<g mask="url(#mask0_1442_2144)">
<path d="M26.6 29.9496C23.8222 29.9496 21.0778 29.307 18.3667 28.0218C15.6556 26.7366 13.1889 24.915 10.9667 22.5569C8.74444 20.1988 7.02778 17.5813 5.81667 14.7044C4.60556 11.8275 4 8.91519 4 5.96755C4 5.54308 4.13333 5.18937 4.4 4.90639C4.66667 4.62342 5 4.48193 5.4 4.48193H10.8C11.1111 4.48193 11.3889 4.59394 11.6333 4.81796C11.8778 5.04199 12.0222 5.30727 12.0667 5.61383L12.9333 10.5659C12.9778 10.9432 12.9667 11.2615 12.9 11.5209C12.8333 11.7803 12.7111 12.0043 12.5333 12.193L9.3 15.6594C9.74444 16.5319 10.2722 17.3749 10.8833 18.1885C11.4944 19.002 12.1667 19.7861 12.9 20.5407C13.5889 21.2717 14.3111 21.9497 15.0667 22.5746C15.8222 23.1995 16.6222 23.7713 17.4667 24.2901L20.6 20.9651C20.8 20.7529 21.0611 20.5937 21.3833 20.4876C21.7056 20.3815 22.0222 20.352 22.3333 20.3992L26.9333 21.3896C27.2444 21.4839 27.5 21.6549 27.7 21.9025C27.9 22.1501 28 22.4272 28 22.7337V28.4639C28 28.8884 27.8667 29.2421 27.6 29.5251C27.3333 29.8081 27 29.9496 26.6 29.9496ZM8.03333 12.9711L10.2333 10.6366L9.66667 7.31167H6.7C6.81111 8.2785 6.96667 9.23353 7.16667 10.1768C7.36667 11.12 7.65556 12.0515 8.03333 12.9711ZM19.9667 25.6342C20.8333 26.0351 21.7167 26.3534 22.6167 26.5892C23.5167 26.8251 24.4222 26.9783 25.3333 27.0491V23.9364L22.2 23.2643L19.9667 25.6342Z" fill="#459F2C"/>
</g>
</svg>
