<svg width="30" height="31" viewBox="0 0 30 31" fill="none" xmlns="http://www.w3.org/2000/svg">
<mask id="mask0_252_1407" style="mask-type:alpha" maskUnits="userSpaceOnUse" x="0" y="0" width="30" height="31">
<rect width="30" height="30.8219" fill="#27AE60"/>
</mask>
<g mask="url(#mask0_252_1407)">
<path d="M10.75 30.1116L8.375 25.9891L3.875 24.9585L4.3125 20.1918L1.25 16.5846L4.3125 12.9774L3.875 8.21077L8.375 7.18014L10.75 3.05762L15 4.92563L19.25 3.05762L21.625 7.18014L26.125 8.21077L25.6875 12.9774L28.75 16.5846L25.6875 20.1918L26.125 24.9585L21.625 25.9891L19.25 30.1116L15 28.2436L10.75 30.1116ZM11.8125 26.8265L15 25.4094L18.25 26.8265L20 23.7346L23.4375 22.8972L23.125 19.29L25.4375 16.5846L23.125 13.8148L23.4375 10.2076L20 9.43464L18.1875 6.34275L15 7.75987L11.75 6.34275L10 9.43464L6.5625 10.2076L6.875 13.8148L4.5625 16.5846L6.875 19.29L6.5625 22.9617L10 23.7346L11.8125 26.8265ZM13.6875 21.1581L20.75 13.8792L19 12.0112L13.6875 17.4864L11 14.781L9.25 16.5846L13.6875 21.1581Z" fill="#27AE60"/>
</g>
</svg>
