<svg width="28" height="22" viewBox="0 0 28 22" fill="none" xmlns="http://www.w3.org/2000/svg">
<path d="M16.6641 12.333H23.3307V9.66634H16.6641V12.333ZM16.6641 8.33301H23.3307V5.66634H16.6641V8.33301ZM4.66406 16.333H15.3307V15.5997C15.3307 14.5997 14.8418 13.8052 13.8641 13.2163C12.8863 12.6275 11.5974 12.333 9.9974 12.333C8.3974 12.333 7.10851 12.6275 6.13073 13.2163C5.15295 13.8052 4.66406 14.5997 4.66406 15.5997V16.333ZM9.9974 10.9997C10.7307 10.9997 11.3585 10.7386 11.8807 10.2163C12.403 9.69412 12.6641 9.06634 12.6641 8.33301C12.6641 7.59967 12.403 6.9719 11.8807 6.44967C11.3585 5.92745 10.7307 5.66634 9.9974 5.66634C9.26406 5.66634 8.63628 5.92745 8.11406 6.44967C7.59184 6.9719 7.33073 7.59967 7.33073 8.33301C7.33073 9.06634 7.59184 9.69412 8.11406 10.2163C8.63628 10.7386 9.26406 10.9997 9.9974 10.9997ZM3.33073 21.6663C2.5974 21.6663 1.96962 21.4052 1.4474 20.883C0.925174 20.3608 0.664062 19.733 0.664062 18.9997V2.99967C0.664062 2.26634 0.925174 1.63856 1.4474 1.11634C1.96962 0.594119 2.5974 0.333008 3.33073 0.333008H24.6641C25.3974 0.333008 26.0252 0.594119 26.5474 1.11634C27.0696 1.63856 27.3307 2.26634 27.3307 2.99967V18.9997C27.3307 19.733 27.0696 20.3608 26.5474 20.883C26.0252 21.4052 25.3974 21.6663 24.6641 21.6663H3.33073ZM3.33073 18.9997H24.6641V2.99967H3.33073V18.9997Z" fill="#248C7D"/>
</svg>
