<svg width="30" height="30" viewBox="0 0 30 30" fill="none" xmlns="http://www.w3.org/2000/svg">
<mask id="mask0_293_2331" style="mask-type:alpha" maskUnits="userSpaceOnUse" x="0" y="0" width="30" height="30">
<rect width="30" height="30" fill="#2474E5"/>
</mask>
<g mask="url(#mask0_293_2331)">
<path d="M15 27.5C13.2917 27.5 11.6771 27.1719 10.1562 26.5156C8.63542 25.8594 7.30729 24.9635 6.17188 23.8281C5.03646 22.6927 4.14063 21.3646 3.48438 19.8438C2.82812 18.3229 2.5 16.7083 2.5 15C2.5 13.2708 2.82812 11.651 3.48438 10.1406C4.14063 8.63021 5.03646 7.30729 6.17188 6.17188C7.30729 5.03646 8.63542 4.14063 10.1562 3.48438C11.6771 2.82812 13.2917 2.5 15 2.5C16.7292 2.5 18.349 2.82812 19.8594 3.48438C21.3698 4.14063 22.6927 5.03646 23.8281 6.17188C24.9635 7.30729 25.8594 8.63021 26.5156 10.1406C27.1719 11.651 27.5 13.2708 27.5 15C27.5 16.7083 27.1719 18.3229 26.5156 19.8438C25.8594 21.3646 24.9635 22.6927 23.8281 23.8281C22.6927 24.9635 21.3698 25.8594 19.8594 26.5156C18.349 27.1719 16.7292 27.5 15 27.5ZM15 22.5C17.0833 22.5 18.8542 21.7708 20.3125 20.3125C21.7708 18.8542 22.5 17.0833 22.5 15C22.5 12.9167 21.7708 11.1458 20.3125 9.6875C18.8542 8.22917 17.0833 7.5 15 7.5C12.9167 7.5 11.1458 8.22917 9.6875 9.6875C8.22917 11.1458 7.5 12.9167 7.5 15C7.5 17.0833 8.22917 18.8542 9.6875 20.3125C11.1458 21.7708 12.9167 22.5 15 22.5Z" fill="#2474E5"/>
</g>
</svg>
