<svg width="32" height="32" viewBox="0 0 32 32" fill="none" xmlns="http://www.w3.org/2000/svg">
<mask id="mask0_293_2323" style="mask-type:alpha" maskUnits="userSpaceOnUse" x="0" y="0" width="32" height="32">
<rect width="32" height="32" fill="#D9D9D9"/>
</mask>
<g mask="url(#mask0_293_2323)">
<path d="M16.0026 16.0003C16.7359 16.0003 17.3637 15.7392 17.8859 15.217C18.4082 14.6948 18.6693 14.067 18.6693 13.3337C18.6693 12.6003 18.4082 11.9725 17.8859 11.4503C17.3637 10.9281 16.7359 10.667 16.0026 10.667C15.2693 10.667 14.6415 10.9281 14.1193 11.4503C13.597 11.9725 13.3359 12.6003 13.3359 13.3337C13.3359 14.067 13.597 14.6948 14.1193 15.217C14.6415 15.7392 15.2693 16.0003 16.0026 16.0003ZM16.0026 25.8003C18.7137 23.3114 20.7248 21.0503 22.0359 19.017C23.347 16.9837 24.0026 15.1781 24.0026 13.6003C24.0026 11.1781 23.2304 9.19477 21.6859 7.65033C20.1415 6.10588 18.247 5.33366 16.0026 5.33366C13.7582 5.33366 11.8637 6.10588 10.3193 7.65033C8.77483 9.19477 8.0026 11.1781 8.0026 13.6003C8.0026 15.1781 8.65816 16.9837 9.96927 19.017C11.2804 21.0503 13.2915 23.3114 16.0026 25.8003ZM16.0026 29.3337C12.4248 26.2892 9.7526 23.4614 7.98594 20.8503C6.21927 18.2392 5.33594 15.8225 5.33594 13.6003C5.33594 10.267 6.40816 7.61144 8.5526 5.63366C10.697 3.65588 13.1804 2.66699 16.0026 2.66699C18.8248 2.66699 21.3082 3.65588 23.4526 5.63366C25.597 7.61144 26.6693 10.267 26.6693 13.6003C26.6693 15.8225 25.7859 18.2392 24.0193 20.8503C22.2526 23.4614 19.5804 26.2892 16.0026 29.3337Z" fill="#F75A4C"/>
</g>
</svg>
