<svg width="68" height="67" viewBox="0 0 68 67" fill="none" xmlns="http://www.w3.org/2000/svg">
<path d="M23.4917 66.2719L17.7125 56.2404L6.7625 53.7326L7.82708 42.1337L0.375 33.3562L7.82708 24.5786L6.7625 12.9798L17.7125 10.4719L23.4917 0.44043L33.8333 4.98594L44.175 0.44043L49.9542 10.4719L60.9042 12.9798L59.8396 24.5786L67.2917 33.3562L59.8396 42.1337L60.9042 53.7326L49.9542 56.2404L44.175 66.2719L33.8333 61.7264L23.4917 66.2719ZM26.0771 58.2781L33.8333 54.8298L41.7417 58.2781L46 50.7545L54.3646 48.7168L53.6042 39.9393L59.2312 33.3562L53.6042 26.6163L54.3646 17.8387L46 15.9578L41.5896 8.43425L33.8333 11.8826L25.925 8.43425L21.6667 15.9578L13.3021 17.8387L14.0625 26.6163L8.43542 33.3562L14.0625 39.9393L13.3021 48.8736L21.6667 50.7545L26.0771 58.2781ZM30.6396 44.4848L47.825 26.773L43.5667 22.2275L30.6396 35.5505L24.1 28.9674L19.8417 33.3562L30.6396 44.4848Z" fill="#27AE60"/>
</svg>
