<svg width="32" height="32" viewBox="0 0 32 32" fill="none" xmlns="http://www.w3.org/2000/svg">
<mask id="mask0_346_3888" style="mask-type:alpha" maskUnits="userSpaceOnUse" x="0" y="0" width="32" height="32">
<rect width="32" height="32" fill="#D9D9D9"/>
</mask>
<g mask="url(#mask0_346_3888)">
<path d="M11.9974 18.667H25.3307L20.7307 12.667L17.6641 16.667L15.5974 14.0003L11.9974 18.667ZM10.6641 24.0003C9.93073 24.0003 9.30295 23.7392 8.78073 23.217C8.25851 22.6948 7.9974 22.067 7.9974 21.3337V5.33366C7.9974 4.60033 8.25851 3.97255 8.78073 3.45033C9.30295 2.9281 9.93073 2.66699 10.6641 2.66699H26.6641C27.3974 2.66699 28.0252 2.9281 28.5474 3.45033C29.0696 3.97255 29.3307 4.60033 29.3307 5.33366V21.3337C29.3307 22.067 29.0696 22.6948 28.5474 23.217C28.0252 23.7392 27.3974 24.0003 26.6641 24.0003H10.6641ZM10.6641 21.3337H26.6641V5.33366H10.6641V21.3337ZM5.33073 29.3337C4.5974 29.3337 3.96962 29.0725 3.4474 28.5503C2.92517 28.0281 2.66406 27.4003 2.66406 26.667V8.00033H5.33073V26.667H23.9974V29.3337H5.33073Z" fill="#230383"/>
</g>
</svg>
