<svg width="24" height="24" viewBox="0 0 24 24" fill="none" xmlns="http://www.w3.org/2000/svg">
<mask id="mask0_2071_7847" style="mask-type:alpha" maskUnits="userSpaceOnUse" x="0" y="0" width="24" height="24">
<rect width="24" height="24" fill="#D9D9D9"/>
</mask>
<g mask="url(#mask0_2071_7847)">
<path d="M11.8733 20C11.9399 20 12.0066 19.9833 12.0733 19.95C12.1399 19.9167 12.1899 19.8833 12.2233 19.85L20.4233 11.65C20.6233 11.45 20.7691 11.225 20.8608 10.975C20.9524 10.725 20.9983 10.475 20.9983 10.225C20.9983 9.95833 20.9524 9.70417 20.8608 9.4625C20.7691 9.22083 20.6233 9.00833 20.4233 8.825L16.1733 4.575C15.9899 4.375 15.7774 4.22917 15.5358 4.1375C15.2941 4.04583 15.0399 4 14.7733 4C14.5233 4 14.2733 4.04583 14.0233 4.1375C13.7733 4.22917 13.5483 4.375 13.3483 4.575L13.0733 4.85L14.9233 6.725C15.1733 6.95833 15.3566 7.225 15.4733 7.525C15.5899 7.825 15.6483 8.14167 15.6483 8.475C15.6483 9.175 15.4108 9.7625 14.9358 10.2375C14.4608 10.7125 13.8733 10.95 13.1733 10.95C12.8399 10.95 12.5191 10.8917 12.2108 10.775C11.9024 10.6583 11.6316 10.4833 11.3983 10.25L9.52328 8.4L5.14828 12.775C5.09828 12.825 5.06078 12.8792 5.03578 12.9375C5.01078 12.9958 4.99828 13.0583 4.99828 13.125C4.99828 13.2583 5.04828 13.3792 5.14828 13.4875C5.24828 13.5958 5.36495 13.65 5.49828 13.65C5.56495 13.65 5.63161 13.6333 5.69828 13.6C5.76495 13.5667 5.81495 13.5333 5.84828 13.5L9.24828 10.1L10.6483 11.5L7.27328 14.9C7.22328 14.95 7.18578 15.0042 7.16078 15.0625C7.13578 15.1208 7.12328 15.1833 7.12328 15.25C7.12328 15.3833 7.17328 15.5 7.27328 15.6C7.37328 15.7 7.48995 15.75 7.62328 15.75C7.68995 15.75 7.75661 15.7333 7.82328 15.7C7.88995 15.6667 7.93995 15.6333 7.97328 15.6L11.3733 12.225L12.7733 13.625L9.39828 17.025C9.34828 17.0583 9.31078 17.1083 9.28578 17.175C9.26078 17.2417 9.24828 17.3083 9.24828 17.375C9.24828 17.5083 9.29828 17.625 9.39828 17.725C9.49828 17.825 9.61495 17.875 9.74828 17.875C9.81495 17.875 9.87745 17.8625 9.93578 17.8375C9.99411 17.8125 10.0483 17.775 10.0983 17.725L13.4983 14.35L14.8983 15.75L11.4983 19.15C11.4483 19.2 11.4108 19.2542 11.3858 19.3125C11.3608 19.3708 11.3483 19.4333 11.3483 19.5C11.3483 19.6333 11.4024 19.75 11.5108 19.85C11.6191 19.95 11.7399 20 11.8733 20ZM11.8483 22C11.2316 22 10.6858 21.7958 10.2108 21.3875C9.73578 20.9792 9.45661 20.4667 9.37328 19.85C8.80661 19.7667 8.33161 19.5333 7.94828 19.15C7.56495 18.7667 7.33161 18.2917 7.24828 17.725C6.68161 17.6417 6.21078 17.4042 5.83578 17.0125C5.46078 16.6208 5.23161 16.15 5.14828 15.6C4.51495 15.5167 3.99828 15.2417 3.59828 14.775C3.19828 14.3083 2.99828 13.7583 2.99828 13.125C2.99828 12.7917 3.06078 12.4708 3.18578 12.1625C3.31078 11.8542 3.48995 11.5833 3.72328 11.35L9.52328 5.575L12.7983 8.85C12.8316 8.9 12.8816 8.9375 12.9483 8.9625C13.0149 8.9875 13.0816 9 13.1483 9C13.2983 9 13.4233 8.95417 13.5233 8.8625C13.6233 8.77083 13.6733 8.65 13.6733 8.5C13.6733 8.43333 13.6608 8.36667 13.6358 8.3C13.6108 8.23333 13.5733 8.18333 13.5233 8.15L9.94828 4.575C9.76495 4.375 9.55245 4.22917 9.31078 4.1375C9.06911 4.04583 8.81495 4 8.54828 4C8.29828 4 8.04828 4.04583 7.79828 4.1375C7.54828 4.22917 7.32328 4.375 7.12328 4.575L3.59828 8.125C3.44828 8.275 3.32328 8.45 3.22328 8.65C3.12328 8.85 3.05661 9.05 3.02328 9.25C2.98995 9.45 2.98995 9.65417 3.02328 9.8625C3.05661 10.0708 3.12328 10.2667 3.22328 10.45L1.77328 11.9C1.48995 11.5167 1.28161 11.0958 1.14828 10.6375C1.01495 10.1792 0.964948 9.71667 0.998281 9.25C1.03161 8.78333 1.14828 8.32917 1.34828 7.8875C1.54828 7.44583 1.82328 7.05 2.17328 6.7L5.69828 3.175C6.09828 2.79167 6.54411 2.5 7.03578 2.3C7.52745 2.1 8.03161 2 8.54828 2C9.06495 2 9.56911 2.1 10.0608 2.3C10.5524 2.5 10.9899 2.79167 11.3733 3.175L11.6483 3.45L11.9233 3.175C12.3233 2.79167 12.7691 2.5 13.2608 2.3C13.7524 2.1 14.2566 2 14.7733 2C15.2899 2 15.7941 2.1 16.2858 2.3C16.7774 2.5 17.2149 2.79167 17.5983 3.175L21.8233 7.4C22.2066 7.78333 22.4983 8.225 22.6983 8.725C22.8983 9.225 22.9983 9.73333 22.9983 10.25C22.9983 10.7667 22.8983 11.2708 22.6983 11.7625C22.4983 12.2542 22.2066 12.6917 21.8233 13.075L13.6233 21.25C13.3899 21.4833 13.1191 21.6667 12.8108 21.8C12.5024 21.9333 12.1816 22 11.8483 22Z" fill="#4BA4B8"/>
</g>
</svg>
