<svg width="22" height="22" viewBox="0 0 22 22" fill="none" xmlns="http://www.w3.org/2000/svg">
<path opacity="0.7" fill-rule="evenodd" clip-rule="evenodd" d="M11 0.0966797C8.02937 0.0966797 7.6575 0.109582 6.49047 0.161192C5.32672 0.213877 4.53156 0.395586 3.83594 0.661161C3.10584 0.93087 2.44442 1.35395 1.89781 1.90087C1.34148 2.43823 0.911112 3.08843 0.636719 3.80613C0.366563 4.48996 0.181719 5.27163 0.128125 6.41565C0.0745312 7.56289 0.0625 7.92846 0.0625 10.8487C0.0625 13.769 0.0745312 14.1345 0.128125 15.2818C0.181719 16.4258 0.366563 17.2075 0.636719 17.8913C0.911143 18.609 1.34151 19.2592 1.89781 19.7965C2.44446 20.3434 3.10588 20.7665 3.83594 21.0363C4.53156 21.3018 5.32672 21.4835 6.49047 21.5362C7.6575 21.5878 8.02937 21.6007 11 21.6007C13.9706 21.6007 14.3425 21.5878 15.5095 21.5362C16.6733 21.4835 17.4684 21.3018 18.1641 21.0363C18.8941 20.7665 19.5556 20.3434 20.1022 19.7965C20.6585 19.2592 21.0889 18.609 21.3633 17.8913C21.6334 17.2075 21.8183 16.4258 21.8719 15.2818C21.9244 14.1345 21.9375 13.769 21.9375 10.8487C21.9375 7.92846 21.9244 7.56289 21.8719 6.41565C21.8183 5.27163 21.6334 4.48996 21.3633 3.80613C21.0889 3.08843 20.6585 2.43823 20.1022 1.90087C19.5556 1.35395 18.8942 0.93087 18.1641 0.661161C17.4684 0.395586 16.6733 0.213877 15.5095 0.161192C14.3425 0.109582 13.9706 0.0966797 11 0.0966797ZM11 2.0342C13.9203 2.0342 14.2659 2.04495 15.4188 2.09656C16.4863 2.14494 17.0648 2.31912 17.4509 2.46643C17.9606 2.66211 18.3259 2.89543 18.7088 3.27068C19.0916 3.647 19.3278 4.00612 19.5269 4.50716C19.6756 4.88671 19.855 5.45549 19.9031 6.50381C19.9556 7.63815 19.9666 7.97684 19.9666 10.8487C19.9666 13.7195 19.9556 14.0593 19.9031 15.1925C19.8539 16.2419 19.6756 16.8107 19.5269 17.1903C19.3515 17.6573 19.072 18.0798 18.7088 18.4267C18.3259 18.8031 17.9606 19.0353 17.4509 19.231C17.0648 19.3772 16.4863 19.5536 15.4198 19.6009C14.267 19.6525 13.9214 19.6632 11 19.6632C8.07969 19.6632 7.73297 19.6525 6.58125 19.6009C5.51375 19.5525 4.93516 19.3772 4.54906 19.231C4.07392 19.0587 3.64411 18.7839 3.29125 18.4267C2.92797 18.0799 2.64841 17.6573 2.47312 17.1903C2.32328 16.8107 2.145 16.2419 2.09687 15.1936C2.04437 14.0593 2.03344 13.7206 2.03344 10.8487C2.03344 7.97792 2.04437 7.63815 2.09687 6.50489C2.14609 5.45549 2.32328 4.88671 2.47312 4.50716C2.67219 4.00612 2.90953 3.647 3.29125 3.27068C3.67406 2.89436 4.03938 2.66211 4.54906 2.46643C4.93516 2.31912 5.51375 2.14387 6.58016 2.09656C7.73406 2.04495 8.07859 2.0342 11 2.0342ZM11 14.4324C10.0332 14.4324 9.10592 14.0548 8.42226 13.3827C7.73861 12.7107 7.35453 11.7992 7.35453 10.8487C7.35453 9.89827 7.73861 8.98675 8.42226 8.31469C9.10592 7.64262 10.0332 7.26506 11 7.26506C11.9668 7.26506 12.8941 7.64262 13.5777 8.31469C14.2614 8.98675 14.6455 9.89827 14.6455 10.8487C14.6455 11.7992 14.2614 12.7107 13.5777 13.3827C12.8941 14.0548 11.9668 14.4324 11 14.4324V14.4324ZM11 5.32754C10.2624 5.32754 9.53211 5.47035 8.85069 5.74782C8.16928 6.02528 7.55013 6.43197 7.0286 6.94465C6.50707 7.45734 6.09337 8.06599 5.81112 8.73585C5.52887 9.40571 5.38359 10.1237 5.38359 10.8487C5.38359 11.5738 5.52887 12.2917 5.81112 12.9616C6.09337 13.6314 6.50707 14.2401 7.0286 14.7528C7.55013 15.2655 8.16928 15.6721 8.85069 15.9496C9.53211 16.2271 10.2624 16.3699 11 16.3699C12.4896 16.3699 13.9181 15.7882 14.9714 14.7528C16.0247 13.7173 16.6164 12.313 16.6164 10.8487C16.6164 9.3844 16.0247 7.98007 14.9714 6.94465C13.9181 5.90924 12.4896 5.32754 11 5.32754V5.32754ZM18.1509 5.10928C18.1509 5.27871 18.117 5.44649 18.051 5.60303C17.9851 5.75957 17.8884 5.90181 17.7665 6.02162C17.6446 6.14143 17.4999 6.23646 17.3407 6.30131C17.1815 6.36615 17.0108 6.39952 16.8384 6.39952C16.6661 6.39952 16.4954 6.36615 16.3362 6.30131C16.1769 6.23646 16.0322 6.14143 15.9104 6.02162C15.7885 5.90181 15.6918 5.75957 15.6258 5.60303C15.5599 5.44649 15.5259 5.27871 15.5259 5.10928C15.5259 4.76708 15.6642 4.4389 15.9104 4.19694C16.1565 3.95497 16.4903 3.81903 16.8384 3.81903C17.1865 3.81903 17.5204 3.95497 17.7665 4.19694C18.0127 4.4389 18.1509 4.76708 18.1509 5.10928" fill="#000958"/>
</svg>
