<svg width="30" height="30" viewBox="0 0 30 30" fill="none" xmlns="http://www.w3.org/2000/svg">
<mask id="mask0_346_3894" style="mask-type:alpha" maskUnits="userSpaceOnUse" x="0" y="0" width="30" height="30">
<rect width="30" height="30" fill="#D9D9D9"/>
</mask>
<g mask="url(#mask0_346_3894)">
<path d="M8.75 10.625L11.25 8.125L8.75 5.625L6.25 8.125L8.75 10.625ZM5 17.5C4.3125 17.5 3.72396 17.2552 3.23438 16.7656C2.74479 16.276 2.5 15.6875 2.5 15V3.75C2.5 3.0625 2.74479 2.47396 3.23438 1.98438C3.72396 1.49479 4.3125 1.25 5 1.25H25C25.6875 1.25 26.276 1.49479 26.7656 1.98438C27.2552 2.47396 27.5 3.0625 27.5 3.75V15C27.5 15.6875 27.2552 16.276 26.7656 16.7656C26.276 17.2552 25.6875 17.5 25 17.5H20.9688C21.0938 17.0833 21.1771 16.6667 21.2188 16.25C21.2604 15.8333 21.2604 15.4167 21.2188 15H25V3.75H5V15H8.78125C8.73958 15.4167 8.73958 15.8333 8.78125 16.25C8.82292 16.6667 8.90625 17.0833 9.03125 17.5H5ZM20.625 8.75C21.1458 8.75 21.5885 8.56771 21.9531 8.20312C22.3177 7.83854 22.5 7.39583 22.5 6.875C22.5 6.35417 22.3177 5.91146 21.9531 5.54688C21.5885 5.18229 21.1458 5 20.625 5C20.1042 5 19.6615 5.18229 19.2969 5.54688C18.9323 5.91146 18.75 6.35417 18.75 6.875C18.75 7.39583 18.9323 7.83854 19.2969 8.20312C19.6615 8.56771 20.1042 8.75 20.625 8.75ZM6.25 28.75V26.125C6.25 25.3958 6.45312 24.7188 6.85938 24.0938C7.26562 23.4688 7.80208 23 8.46875 22.6875C9.48958 22.2083 10.5521 21.849 11.6562 21.6094C12.7604 21.3698 13.875 21.25 15 21.25C16.125 21.25 17.2396 21.3698 18.3438 21.6094C19.4479 21.849 20.5104 22.2083 21.5312 22.6875C22.1979 23 22.7344 23.4688 23.1406 24.0938C23.5469 24.7188 23.75 25.3958 23.75 26.125V28.75H6.25ZM8.75 26.25H21.25V26.125C21.25 25.875 21.1771 25.6458 21.0312 25.4375C20.8854 25.2292 20.6979 25.0729 20.4688 24.9688C19.5938 24.5729 18.6979 24.2708 17.7812 24.0625C16.8646 23.8542 15.9375 23.75 15 23.75C14.0625 23.75 13.1354 23.8542 12.2188 24.0625C11.3021 24.2708 10.4062 24.5729 9.53125 24.9688C9.30208 25.0729 9.11458 25.2292 8.96875 25.4375C8.82292 25.6458 8.75 25.875 8.75 26.125V26.25ZM15 20C13.7917 20 12.7604 19.5729 11.9062 18.7188C11.0521 17.8646 10.625 16.8333 10.625 15.625C10.625 14.4167 11.0521 13.3854 11.9062 12.5313C12.7604 11.6771 13.7917 11.25 15 11.25C16.2083 11.25 17.2396 11.6771 18.0938 12.5313C18.9479 13.3854 19.375 14.4167 19.375 15.625C19.375 16.8333 18.9479 17.8646 18.0938 18.7188C17.2396 19.5729 16.2083 20 15 20ZM15 17.5C15.5208 17.5 15.9635 17.3177 16.3281 16.9531C16.6927 16.5885 16.875 16.1458 16.875 15.625C16.875 15.1042 16.6927 14.6615 16.3281 14.2969C15.9635 13.9323 15.5208 13.75 15 13.75C14.4792 13.75 14.0365 13.9323 13.6719 14.2969C13.3073 14.6615 13.125 15.1042 13.125 15.625C13.125 16.1458 13.3073 16.5885 13.6719 16.9531C14.0365 17.3177 14.4792 17.5 15 17.5Z" fill="#B097AE"/>
</g>
</svg>
