<svg width="30" height="30" viewBox="0 0 30 30" fill="none" xmlns="http://www.w3.org/2000/svg">
<mask id="mask0_346_3882" style="mask-type:alpha" maskUnits="userSpaceOnUse" x="0" y="0" width="30" height="30">
<rect width="30" height="30" fill="#D9D9D9"/>
</mask>
<g mask="url(#mask0_346_3882)">
<path d="M2.5 27.5V23.75C2.5 23.0625 2.74479 22.474 3.23438 21.9844C3.72396 21.4948 4.3125 21.25 5 21.25H25C25.6875 21.25 26.276 21.4948 26.7656 21.9844C27.2552 22.474 27.5 23.0625 27.5 23.75V27.5H2.5ZM5 25H25V23.75H5V25ZM6.25 19.375V5C6.25 4.3125 6.49479 3.72396 6.98438 3.23438C7.47396 2.74479 8.0625 2.5 8.75 2.5H21.25C21.9375 2.5 22.526 2.74479 23.0156 3.23438C23.5052 3.72396 23.75 4.3125 23.75 5V19.375H21.25V5H8.75V19.375H6.25ZM10 17.5H10.7188C11.6354 17.5 12.3698 17.0417 12.9219 16.125C13.474 15.2083 13.75 14 13.75 12.5C13.75 11 13.474 9.79167 12.9219 8.875C12.3698 7.95833 11.6354 7.5 10.7188 7.5H10V17.5ZM17.5 15C18.1875 15 18.776 14.7552 19.2656 14.2656C19.7552 13.776 20 13.1875 20 12.5C20 11.8125 19.7552 11.224 19.2656 10.7344C18.776 10.2448 18.1875 10 17.5 10C16.8125 10 16.224 10.2448 15.7344 10.7344C15.2448 11.224 15 11.8125 15 12.5C15 13.1875 15.2448 13.776 15.7344 14.2656C16.224 14.7552 16.8125 15 17.5 15Z" fill="#646038"/>
</g>
</svg>
