<svg width="22" height="22" viewBox="0 0 22 22" fill="none" xmlns="http://www.w3.org/2000/svg">
<path opacity="0.7" d="M20.7222 0.0966797H1.27778C0.955466 0.0966797 0.646355 0.222546 0.418447 0.44659C0.190538 0.670634 0.0625 0.974503 0.0625 1.29135V20.4061C0.0625 20.7229 0.190538 21.0268 0.418447 21.2508C0.646355 21.4749 0.955466 21.6007 1.27778 21.6007H20.7222C21.0445 21.6007 21.3536 21.4749 21.5816 21.2508C21.8095 21.0268 21.9375 20.7229 21.9375 20.4061V1.29135C21.9375 0.974503 21.8095 0.670634 21.5816 0.44659C21.3536 0.222546 21.0445 0.0966797 20.7222 0.0966797V0.0966797ZM6.55087 18.4193H3.30365V8.15712H6.55087V18.4193ZM4.92726 6.75577C4.42832 6.75577 3.94982 6.56093 3.59701 6.21411C3.24421 5.86729 3.04601 5.3969 3.04601 4.90642C3.04601 4.41594 3.24421 3.94555 3.59701 3.59873C3.94982 3.25191 4.42832 3.05707 4.92726 3.05707C5.4262 3.05707 5.9047 3.25191 6.2575 3.59873C6.6103 3.94555 6.80851 4.41594 6.80851 4.90642C6.80851 5.3969 6.6103 5.86729 6.2575 6.21411C5.9047 6.56093 5.4262 6.75577 4.92726 6.75577V6.75577ZM18.7024 18.4193H15.4589V13.4292C15.4589 12.2393 15.437 10.7089 13.772 10.7089C12.0828 10.7089 11.8264 12.0063 11.8264 13.3456V18.4205H8.58524V8.15831H11.6964V9.56086H11.7413C12.1727 8.75445 13.2325 7.90385 14.8087 7.90385C18.0948 7.90385 18.7012 10.028 18.7012 12.7924V18.4193H18.7024Z" fill="#000958"/>
</svg>
