<svg width="32" height="34" viewBox="0 0 32 34" fill="none" xmlns="http://www.w3.org/2000/svg">
<mask id="mask0_1658_4610" style="mask-type:alpha" maskUnits="userSpaceOnUse" x="0" y="0" width="32" height="34">
<rect y="0.0432129" width="32" height="33.9568" fill="#D9D9D9"/>
</mask>
<g mask="url(#mask0_1658_4610)">
<path d="M16.0026 17.0212C16.7359 17.0212 17.3637 16.7442 17.8859 16.19C18.4082 15.6358 18.6693 14.9697 18.6693 14.1915C18.6693 13.4133 18.4082 12.7472 17.8859 12.193C17.3637 11.6388 16.7359 11.3618 16.0026 11.3618C15.2693 11.3618 14.6415 11.6388 14.1193 12.193C13.597 12.7472 13.3359 13.4133 13.3359 14.1915C13.3359 14.9697 13.597 15.6358 14.1193 16.19C14.6415 16.7442 15.2693 17.0212 16.0026 17.0212ZM16.0026 27.4205C18.7137 24.7794 20.7248 22.3801 22.0359 20.2224C23.347 18.0647 24.0026 16.1487 24.0026 14.4745C24.0026 11.9041 23.2304 9.79952 21.6859 8.16063C20.1415 6.52174 18.247 5.70229 16.0026 5.70229C13.7582 5.70229 11.8637 6.52174 10.3193 8.16063C8.77483 9.79952 8.0026 11.9041 8.0026 14.4745C8.0026 16.1487 8.65816 18.0647 9.96927 20.2224C11.2804 22.3801 13.2915 24.7794 16.0026 27.4205ZM16.0026 31.1699C12.4248 27.9393 9.7526 24.9386 7.98594 22.1678C6.21927 19.397 5.33594 16.8326 5.33594 14.4745C5.33594 10.9373 6.40816 8.11936 8.5526 6.02064C10.697 3.92192 13.1804 2.87256 16.0026 2.87256C18.8248 2.87256 21.3082 3.92192 23.4526 6.02064C25.597 8.11936 26.6693 10.9373 26.6693 14.4745C26.6693 16.8326 25.7859 19.397 24.0193 22.1678C22.2526 24.9386 19.5804 27.9393 16.0026 31.1699Z" fill="#D5420C"/>
</g>
</svg>
