<svg width="36" height="37" viewBox="0 0 36 37" fill="none" xmlns="http://www.w3.org/2000/svg">
<mask id="mask0_255_2277" style="mask-type:alpha" maskUnits="userSpaceOnUse" x="0" y="0" width="36" height="37">
<rect width="36" height="36.3472" fill="#D9D9D9"/>
</mask>
<g mask="url(#mask0_255_2277)">
<path d="M6 30.2891C5.175 30.2891 4.46875 29.9925 3.88125 29.3993C3.29375 28.8062 3 28.0931 3 27.2601V9.08655C3 8.25359 3.29375 7.54053 3.88125 6.94737C4.46875 6.3542 5.175 6.05762 6 6.05762H30C30.825 6.05762 31.5312 6.3542 32.1187 6.94737C32.7062 7.54053 33 8.25359 33 9.08655V27.2601C33 28.0931 32.7062 28.8062 32.1187 29.3993C31.5312 29.9925 30.825 30.2891 30 30.2891H6ZM18 19.6878L6 12.1155V27.2601H30V12.1155L18 19.6878ZM18 16.6589L30 9.08655H6L18 16.6589ZM6 12.1155V9.08655V27.2601V12.1155Z" fill="white"/>
</g>
</svg>
