<svg width="6" height="22" viewBox="0 0 6 22" fill="none" xmlns="http://www.w3.org/2000/svg">
<path d="M2.9987 21.6663C2.26536 21.6663 1.63759 21.4052 1.11536 20.883C0.593142 20.3608 0.332031 19.733 0.332031 18.9997C0.332031 18.2663 0.593142 17.6386 1.11536 17.1163C1.63759 16.5941 2.26536 16.333 2.9987 16.333C3.73203 16.333 4.35981 16.5941 4.88203 17.1163C5.40425 17.6386 5.66536 18.2663 5.66536 18.9997C5.66536 19.733 5.40425 20.3608 4.88203 20.883C4.35981 21.4052 3.73203 21.6663 2.9987 21.6663ZM2.9987 13.6663C2.26536 13.6663 1.63759 13.4052 1.11536 12.883C0.593142 12.3608 0.332031 11.733 0.332031 10.9997C0.332031 10.2663 0.593142 9.63856 1.11536 9.11634C1.63759 8.59412 2.26536 8.33301 2.9987 8.33301C3.73203 8.33301 4.35981 8.59412 4.88203 9.11634C5.40425 9.63856 5.66536 10.2663 5.66536 10.9997C5.66536 11.733 5.40425 12.3608 4.88203 12.883C4.35981 13.4052 3.73203 13.6663 2.9987 13.6663ZM2.9987 5.66634C2.26536 5.66634 1.63759 5.40523 1.11536 4.88301C0.593142 4.36079 0.332031 3.73301 0.332031 2.99967C0.332031 2.26634 0.593142 1.63856 1.11536 1.11634C1.63759 0.594119 2.26536 0.333008 2.9987 0.333008C3.73203 0.333008 4.35981 0.594119 4.88203 1.11634C5.40425 1.63856 5.66536 2.26634 5.66536 2.99967C5.66536 3.73301 5.40425 4.36079 4.88203 4.88301C4.35981 5.40523 3.73203 5.66634 2.9987 5.66634Z" fill="#753030"/>
</svg>
