<svg width="63" height="57" viewBox="0 0 63 57" fill="none" xmlns="http://www.w3.org/2000/svg">
<path d="M5.66667 50.4102C4.10833 50.4102 2.77431 49.7963 1.66458 48.5685C0.554861 47.3407 0 45.8647 0 44.1406V6.52259C0 4.79844 0.554861 3.32245 1.66458 2.09464C2.77431 0.866834 4.10833 0.25293 5.66667 0.25293H51C52.5583 0.25293 53.8924 0.866834 55.0021 2.09464C56.1118 3.32245 56.6667 4.79844 56.6667 6.52259V25.3316H5.66667V44.1406H34V50.4102H5.66667ZM5.66667 12.7923H51V6.52259H5.66667V12.7923ZM48.1667 56.6799V47.2754H39.6667V41.0057H48.1667V31.6012H53.8333V41.0057H62.3333V47.2754H53.8333V56.6799H48.1667Z" fill="#1D6BD1"/>
</svg>
