<svg width="50" height="50" viewBox="0 0 50 50" fill="none" xmlns="http://www.w3.org/2000/svg">
<mask id="mask0_255_2298" style="mask-type:alpha" maskUnits="userSpaceOnUse" x="0" y="0" width="50" height="50">
<rect y="0.421875" width="50" height="49.1522" fill="#D9D9D9"/>
</mask>
<g mask="url(#mask0_255_2298)">
<path d="M9.66667 43C7.55833 43 5.75347 42.0208 4.25208 40.0625C2.75069 38.1042 2 35.75 2 33C2 30.625 2.58299 28.5208 3.74896 26.6875C4.91493 24.8542 6.40833 23.7083 8.22917 23.25L6.8875 21.75H2V18H10.625L15.4167 21.75L23.0833 18H29.1208L26.15 13H21.1667V8H27.9708L31.9958 14.75L38.4167 10.5V18H34.0083L37.3625 23.75C37.8417 23.5 38.3288 23.3125 38.824 23.1875C39.3191 23.0625 39.8222 23 40.3333 23C42.4417 23 44.2465 23.9792 45.7479 25.9375C47.2493 27.8958 48 30.25 48 33C48 35.75 47.2493 38.1042 45.7479 40.0625C44.2465 42.0208 42.4417 43 40.3333 43C38.225 43 36.4201 42.0208 34.9188 40.0625C33.4174 38.1042 32.6667 35.75 32.6667 33C32.6667 31.875 32.8184 30.7812 33.1219 29.7188C33.4253 28.6562 33.8486 27.6667 34.3917 26.75L33.4333 25.25L26.9167 38H21.1667L17.3333 33.625C17.1736 36.25 16.359 38.4688 14.8896 40.2812C13.4201 42.0938 11.6792 43 9.66667 43ZM9.66667 38C10.7208 38 11.6233 37.5104 12.374 36.5312C13.1247 35.5521 13.5 34.375 13.5 33C13.5 31.625 13.1247 30.4479 12.374 29.4688C11.6233 28.4896 10.7208 28 9.66667 28C8.6125 28 7.71007 28.4896 6.95937 29.4688C6.20868 30.4479 5.83333 31.625 5.83333 33C5.83333 34.375 6.20868 35.5521 6.95937 36.5312C7.71007 37.5104 8.6125 38 9.66667 38ZM40.3333 38C41.3875 38 42.2899 37.5104 43.0406 36.5312C43.7913 35.5521 44.1667 34.375 44.1667 33C44.1667 31.625 43.7913 30.4479 43.0406 29.4688C42.2899 28.4896 41.3875 28 40.3333 28C39.2792 28 38.3767 28.4896 37.626 29.4688C36.8753 30.4479 36.5 31.625 36.5 33C36.5 34.375 36.8753 35.5521 37.626 36.5312C38.3767 37.5104 39.2792 38 40.3333 38ZM24.9042 33L29.9833 23H23.7542L16.8542 26.375L22.6042 33H24.9042Z" fill="#161823"/>
</g>
</svg>
