<svg width="61" height="68" viewBox="0 0 61 68" fill="none" xmlns="http://www.w3.org/2000/svg">
<path d="M43.9974 50.5665C45.3863 50.5665 46.5668 50.0789 47.5391 49.1036C48.5113 48.1283 48.9974 46.944 48.9974 45.5508C48.9974 44.1575 48.5113 42.9732 47.5391 41.998C46.5668 41.0227 45.3863 40.535 43.9974 40.535C42.6085 40.535 41.4279 41.0227 40.4557 41.998C39.4835 42.9732 38.9974 44.1575 38.9974 45.5508C38.9974 46.944 39.4835 48.1283 40.4557 49.1036C41.4279 50.0789 42.6085 50.5665 43.9974 50.5665ZM43.9974 60.598C45.7196 60.598 47.303 60.1939 48.7474 59.3858C50.1918 58.5777 51.3585 57.5049 52.2474 56.1674C51.0252 55.4429 49.7196 54.8856 48.3307 54.4955C46.9418 54.1054 45.4974 53.9103 43.9974 53.9103C42.4974 53.9103 41.053 54.1054 39.6641 54.4955C38.2752 54.8856 36.9696 55.4429 35.7474 56.1674C36.6363 57.5049 37.803 58.5777 39.2474 59.3858C40.6918 60.1939 42.2752 60.598 43.9974 60.598ZM27.3307 67.2856C19.6085 65.335 13.2335 60.8905 8.20573 53.9521C3.17795 47.0137 0.664062 39.309 0.664062 30.838V10.4406L27.3307 0.40918L53.9974 10.4406V29.4168C52.9418 28.971 51.8585 28.5669 50.7474 28.2047C49.6363 27.8424 48.4974 27.5777 47.3307 27.4105V15.122L27.3307 7.5984L7.33073 15.122V30.838C7.33073 33.4573 7.67795 36.0766 8.3724 38.6959C9.06684 41.3153 10.0391 43.8092 11.2891 46.1777C12.5391 48.5463 14.053 50.7337 15.8307 52.74C17.6085 54.7463 19.5807 56.4182 21.7474 57.7557C22.3585 59.5391 23.1641 61.2389 24.1641 62.855C25.1641 64.4712 26.303 65.9202 27.5807 67.202C27.5252 67.202 27.4835 67.2159 27.4557 67.2438C27.428 67.2717 27.3863 67.2856 27.3307 67.2856ZM43.9974 67.2856C39.3863 67.2856 35.4557 65.6555 32.2057 62.3953C28.9557 59.135 27.3307 55.1921 27.3307 50.5665C27.3307 45.9409 28.9557 41.998 32.2057 38.7377C35.4557 35.4775 39.3863 33.8474 43.9974 33.8474C48.6085 33.8474 52.5391 35.4775 55.7891 38.7377C59.0391 41.998 60.6641 45.9409 60.6641 50.5665C60.6641 55.1921 59.0391 59.135 55.7891 62.3953C52.5391 65.6555 48.6085 67.2856 43.9974 67.2856Z" fill="#BFC385"/>
</svg>
