<svg width="57" height="51" viewBox="0 0 57 51" fill="none" xmlns="http://www.w3.org/2000/svg">
<path d="M19.8333 41.0331H36.8333V37.8983L34 36.3308C35.5583 36.3308 36.8924 35.7169 38.0021 34.4891C39.1118 33.2613 39.6667 31.7853 39.6667 30.0612V15.9544C39.6667 13.7078 38.7931 12.1012 37.0458 11.1346C35.2986 10.1681 32.3944 9.68477 28.3333 9.68477C24.4139 9.68477 21.5451 10.1811 19.7271 11.1738C17.909 12.1665 17 13.7601 17 15.9544V30.0612C17 31.7853 17.5549 33.2613 18.6646 34.4891C19.7743 35.7169 21.1083 36.3308 22.6667 36.3308L19.8333 37.8983V41.0331ZM23.375 33.196C22.7611 33.196 22.2535 32.974 21.8521 32.5299C21.4507 32.0858 21.25 31.5241 21.25 30.8449C21.25 30.1657 21.4507 29.604 21.8521 29.1599C22.2535 28.7158 22.7611 28.4938 23.375 28.4938C23.9889 28.4938 24.4965 28.7158 24.8979 29.1599C25.2993 29.604 25.5 30.1657 25.5 30.8449C25.5 31.5241 25.2993 32.0858 24.8979 32.5299C24.4965 32.974 23.9889 33.196 23.375 33.196ZM33.2917 33.196C32.6778 33.196 32.1701 32.974 31.7688 32.5299C31.3674 32.0858 31.1667 31.5241 31.1667 30.8449C31.1667 30.1657 31.3674 29.604 31.7688 29.1599C32.1701 28.7158 32.6778 28.4938 33.2917 28.4938C33.9056 28.4938 34.4132 28.7158 34.8146 29.1599C35.216 29.604 35.4167 30.1657 35.4167 30.8449C35.4167 31.5241 35.216 32.0858 34.8146 32.5299C34.4132 32.974 33.9056 33.196 33.2917 33.196ZM21.25 25.3589V15.9544H35.4167V25.3589H21.25ZM5.66667 50.4376C4.10833 50.4376 2.77431 49.8237 1.66458 48.5959C0.554861 47.3681 0 45.8921 0 44.1679V33.5879C0 33.0131 0.165278 32.5168 0.495833 32.0988C0.826389 31.6808 1.25139 31.4196 1.77083 31.3151C2.90417 30.8971 3.83681 30.1395 4.56875 29.0424C5.30069 27.9452 5.66667 26.7174 5.66667 25.3589C5.66667 24.0005 5.30069 22.7727 4.56875 21.6755C3.83681 20.5783 2.90417 19.8207 1.77083 19.4028C1.25139 19.2983 0.826389 19.037 0.495833 18.619C0.165278 18.2011 0 17.7047 0 17.13V6.54994C0 4.82578 0.554861 3.3498 1.66458 2.12199C2.77431 0.894178 4.10833 0.280273 5.66667 0.280273H51C52.5583 0.280273 53.8924 0.894178 55.0021 2.12199C56.1118 3.3498 56.6667 4.82578 56.6667 6.54994V17.13C56.6667 17.7047 56.5014 18.2011 56.1708 18.619C55.8403 19.037 55.4153 19.2983 54.8958 19.4028C53.7625 19.8207 52.8299 20.5783 52.0979 21.6755C51.366 22.7727 51 24.0005 51 25.3589C51 26.7174 51.366 27.9452 52.0979 29.0424C52.8299 30.1395 53.7625 30.8971 54.8958 31.3151C55.4153 31.4196 55.8403 31.6808 56.1708 32.0988C56.5014 32.5168 56.6667 33.0131 56.6667 33.5879V44.1679C56.6667 45.8921 56.1118 47.3681 55.0021 48.5959C53.8924 49.8237 52.5583 50.4376 51 50.4376H5.66667ZM5.66667 44.1679H51V36.1741C49.2528 35.0247 47.8715 33.4964 46.8563 31.5894C45.841 29.6824 45.3333 27.6056 45.3333 25.3589C45.3333 23.1123 45.841 21.0355 46.8563 19.1285C47.8715 17.2214 49.2528 15.6932 51 14.5438V6.54994H5.66667V14.5438C7.41389 15.6932 8.79514 17.2214 9.81042 19.1285C10.8257 21.0355 11.3333 23.1123 11.3333 25.3589C11.3333 27.6056 10.8257 29.6824 9.81042 31.5894C8.79514 33.4964 7.41389 35.0247 5.66667 36.1741V44.1679Z" fill="#FF723E"/>
</svg>
