<svg width="23" height="20" viewBox="0 0 23 20" fill="none" xmlns="http://www.w3.org/2000/svg">
<path opacity="0.7" d="M7.22403 19.0646C8.97212 19.0756 10.705 18.7406 12.3222 18.0792C13.9393 17.4178 15.4086 16.443 16.6447 15.2115C17.8808 13.98 18.8592 12.5163 19.5231 10.9051C20.187 9.29401 20.5232 7.56759 20.5122 5.82601V5.21769C21.4183 4.55627 22.2026 3.74348 22.8304 2.81536C21.9771 3.18715 21.0742 3.43373 20.15 3.5474C21.1299 2.96567 21.8652 2.04998 22.2198 0.969792C21.3065 1.51567 20.305 1.89942 19.2599 2.10394C18.5561 1.35681 17.6248 0.86159 16.61 0.694901C15.5953 0.528213 14.5537 0.699349 13.6464 1.18183C12.7391 1.66431 12.0166 2.43124 11.5909 3.36396C11.1652 4.29667 11.0598 5.34317 11.2912 6.34153C9.4346 6.25074 7.61802 5.77139 5.95974 4.93468C4.30146 4.09797 2.83866 2.92267 1.6666 1.48531C1.07559 2.50726 0.896452 3.71477 1.16546 4.86335C1.43446 6.01193 2.13151 7.01576 3.11546 7.67158C2.38959 7.64369 1.68052 7.44589 1.04566 7.09419V7.14575C1.03921 8.21374 1.40034 9.25167 2.06887 10.0866C2.7374 10.9215 3.67294 11.5029 4.71956 11.7339C4.04443 11.9148 3.33723 11.943 2.64976 11.8164C2.95276 12.7272 3.53116 13.5223 4.30565 14.0927C5.08013 14.6631 6.01277 14.9808 6.97565 15.0023C5.32934 16.3226 3.28321 17.0493 1.16985 17.0644C0.799302 17.0537 0.429629 17.0227 0.0625 16.9716C2.2016 18.3294 4.68769 19.0452 7.22403 19.0337" fill="#000958"/>
</svg>
