<svg width="22" height="22" viewBox="0 0 22 22" fill="none" xmlns="http://www.w3.org/2000/svg">
<path opacity="0.7" d="M19.5069 0.0966797H2.49306C1.15625 0.0966797 0.0625 1.17188 0.0625 2.48602V19.2114C0.0625 20.5267 1.15625 21.6007 2.49306 21.6007H11V13.238H8.56944V10.2812H11V7.83217C11 5.2469 12.4729 3.431 15.5767 3.431L17.7679 3.43339V6.54551H16.3132C15.1052 6.54551 14.6458 7.43673 14.6458 8.26344V10.2824H17.7667L17.0764 13.238H14.6458V21.6007H19.5069C20.8438 21.6007 21.9375 20.5267 21.9375 19.2114V2.48602C21.9375 1.17188 20.8438 0.0966797 19.5069 0.0966797Z" fill="#000958"/>
</svg>
